<svg width="296" height="80" viewBox="0 0 296 80" fill="none" xmlns="http://www.w3.org/2000/svg">
<path d="M271 66C271 65.7 271.1 65.4 271.2 65.1C271.3 64.8 271.5 64.5 271.7 64.3C271.9 64.1 272.2 63.9 272.5 63.7C272.8 63.6 273.2 63.5 273.6 63.5C274.1 63.5 274.5 63.6 274.9 63.8C275.3 64 275.7 64.2 276 64.5C276.2 64.8 276.4 65.1 276.6 65.5C276.7 65.9 276.8 66.3 276.8 66.8C276.8 67.7 276.6 68.4 276.3 69.2C276 69.9 275.6 70.6 275 71.1C274.7 71.4 274.5 71.6 274.2 71.8C273.9 72 273.6 72.2 273.3 72.3C273 72.4 272.8 72.6 272.6 72.7C272.5 72.8 272.4 72.8 272.2 72.9L270.8 70.9C271 70.8 271.3 70.7 271.6 70.5C271.9 70.4 272.2 70.2 272.5 70C272.8 69.8 273 69.5 273.2 69.2C273.4 68.9 273.5 68.6 273.5 68.2C272.9 68.2 272.3 68 271.8 67.6C271.2 67.3 271 66.8 271 66ZM278.8 66C278.8 65.7 278.9 65.4 279 65.1C279.1 64.8 279.3 64.5 279.5 64.3C279.7 64.1 280 63.9 280.3 63.7C280.6 63.6 281 63.5 281.4 63.5C281.9 63.5 282.3 63.6 282.7 63.8C283.1 64 283.5 64.2 283.8 64.5C284 64.8 284.2 65.1 284.4 65.5C284.5 65.9 284.6 66.3 284.6 66.8C284.6 67.6 284.5 68.4 284.1 69.2C283.8 69.9 283.4 70.6 282.8 71.1C282.5 71.4 282.3 71.6 282 71.8C281.7 72 281.4 72.2 281.1 72.3C280.8 72.4 280.6 72.6 280.4 72.7C280.3 72.8 280.2 72.8 280 72.9L278.7 70.9C278.9 70.8 279.2 70.7 279.5 70.5C279.8 70.4 280.1 70.2 280.4 70C280.7 69.8 280.9 69.5 281.1 69.2C281.3 68.9 281.4 68.6 281.4 68.2C280.8 68.2 280.2 68 279.7 67.6C279 67.3 278.8 66.8 278.8 66ZM14.2001 7.30002C14.2001 7.60002 14.1001 7.90001 14.0001 8.20001C13.9001 8.50001 13.7001 8.80003 13.5001 9.00003C13.0001 9.50003 12.3001 9.80002 11.6001 9.80002C11.2001 9.80002 10.7001 9.70003 10.3001 9.50003C9.90009 9.30003 9.5001 9.10002 9.2001 8.80002C8.9001 8.50002 8.7001 8.10002 8.6001 7.80002C8.5001 7.40002 8.40009 7.00003 8.40009 6.50003C8.40009 5.60003 8.60009 4.90001 8.90009 4.10001C9.20009 3.40001 9.6001 2.70001 10.2001 2.20001C10.5001 1.90001 10.7001 1.70003 11.0001 1.50003C11.3001 1.30003 11.6001 1.10003 11.9001 1.00003C12.2001 0.900031 12.4001 0.700006 12.6001 0.600006C12.8001 0.500006 12.9001 0.500024 13.0001 0.400024L14.3001 2.40002C14.0001 2.50002 13.7001 2.60002 13.5001 2.80002C13.2001 2.90002 12.9001 3.10002 12.6001 3.30002C12.3001 3.50002 12.1001 3.80001 11.9001 4.10001C11.7001 4.40001 11.6001 4.70001 11.6001 5.10001C12.3001 5.10001 12.8001 5.30001 13.3001 5.70001C14.0001 6.10001 14.2001 6.60002 14.2001 7.30002ZM6.40009 7.30002C6.40009 7.90002 6.2001 8.50003 5.7001 9.00003C5.5001 9.20003 5.20009 9.40001 4.90009 9.60001C4.60009 9.70001 4.20009 9.80002 3.80009 9.80002C3.40009 9.80002 2.9001 9.70003 2.5001 9.50003C2.1001 9.30003 1.70009 9.10002 1.40009 8.80002C1.10009 8.50002 0.900095 8.10002 0.800095 7.80002C0.700095 7.40002 0.600098 7.00003 0.600098 6.50003C0.600098 5.60003 0.800098 4.90001 1.1001 4.10001C1.4001 3.40001 1.80009 2.70001 2.40009 2.20001C2.60009 2.00001 2.9001 1.70003 3.2001 1.50003C3.5001 1.30003 3.8001 1.10003 4.1001 1.00003C4.4001 0.900031 4.60009 0.700006 4.80009 0.600006C5.00009 0.500006 5.1001 0.500024 5.2001 0.400024L6.5001 2.40002C6.3001 2.50002 6.0001 2.60002 5.7001 2.80002C5.4001 2.90002 5.10009 3.10002 4.80009 3.30002C4.50009 3.50002 4.3001 3.80001 4.1001 4.10001C3.9001 4.40001 3.80009 4.70001 3.80009 5.10001C4.50009 5.10001 5.0001 5.30001 5.5001 5.70001C6.1001 6.10001 6.40009 6.60002 6.40009 7.30002ZM251.7 64.2H255.5L267.3 43.6H263.5L251.7 64.2ZM251.6 65.7C250.4 65.7 249.4 66.7 249.4 67.9C249.4 69.1 250.3 70.1 251.6 70.1C252.8 70.1 253.8 69.2 253.8 67.9C253.8 66.6 252.8 65.7 251.6 65.7ZM225.2 60.2L226.3 58.3C230.7 52.2 233.6 53.9 232.3 56.2L230.5 59.3C229.4 61.2 226 62.6 225.2 60.2ZM250.3 63.1C250.1 62.5 249.4 61.9 248.9 61.8L248.6 62.1C247.3 63.7 245.7 65 244.1 66.2C245.3 62.6 245 57.1 247.4 52.2L244.6 50.7C243 52.8 239.6 57.8 236.2 61.8L235.9 62.1C233.2 65.3 230.5 67.8 228.9 67.8C228.1 67.8 227.3 67 227.3 65.3V63.7C230 64 232.8 62.3 234.5 59.2L235.5 57.5C239 51.5 233.3 49.5 229.4 53L234.8 43.7H231L220.2 62.4C220 62.2 219.8 62.1 219.5 61.9L219.2 62.2C216.5 65.4 213 67.9 210.3 67.9C208 67.9 206.6 66.4 208.3 63.4L212.2 56.6C214.4 52.9 218.2 53.5 216 57.4L215.5 58.3H218.6L219.1 57.4C221.1 53.9 219.2 51.3 216.1 51.3C213 51.3 210.6 52.9 209 55.7L205.3 62.1C205.2 62.1 205.1 62 205.1 62L204.8 62.3C202.1 65.5 199.4 68 197.8 68C197 68 196.5 67.4 197.4 65.9L205.5 51.8H201.7L195 63.5C192.1 66.1 189.9 67.6 189.2 67.2C188.3 66.8 189.2 65.4 189.7 64.6L197.1 51.7H193.3L186 64.4C185.2 65.1 183.6 65.8 182.8 66.3C184 62.7 183.7 57.2 186.1 52.3L183.3 50.8C181.7 52.9 173 64.5 169.6 68.5C169.9 69 170.5 69.4 171 69.8C173.1 67.3 180.3 58.1 181.7 56.3C180.2 60.2 181 67.3 177.4 67.3C176.1 67.3 175.6 65.9 175.6 65.9L173.2 67.1C173.2 67.1 173.9 70.1 177.3 70.1C177.7 70.1 178 70.1 178.4 70H178.5C180.4 69.7 183.1 68.9 184.9 67.6C184.9 69.1 185.8 70.1 187.4 70.1C189.5 70.1 191.8 68.2 193.6 66.5C193.2 68.5 194.4 70.1 196.8 70.1C199.1 70.1 201.8 68.2 204.2 65.7C204.2 68.2 206.2 70.1 209.3 70.1C212.4 70.1 215.4 68.4 218 66.1L215.9 69.8H219.7L224 62.3V65.3C224 68.5 224.6 70.2 227.7 70.2C230.8 70.2 234.4 66.9 237.5 63.2C239.6 60.7 241.5 58.1 242.9 56.3C241.4 60.2 242.2 67.3 238.6 67.3C237.3 67.3 236.8 65.9 236.8 65.9L234.4 67.1C234.4 67.1 235.1 70.1 238.5 70.1C238.9 70.1 239.2 70.1 239.6 70H239.7C243.7 69.5 247.5 66.4 250.3 63.1ZM135.7 62H135.5C134.3 62 133.3 63 133.3 64.3C133.3 64.8 133.4 65.2 133.7 65.6V65.7C131.9 68.7 127.6 68.2 129.8 64.2L132.7 59.2L134.5 56.1C137.2 51.6 140.8 53.4 138.5 57.3L135.7 62ZM110.3 76.2C109.5 77.6 108.2 77.4 108.2 76.4C108.2 75.4 109.1 74.3 112 73.2L110.3 76.2ZM81.5001 62.4C79.2001 66 77.0001 67.7 75.4001 67.7C74.6001 67.7 74.1001 67.1 75.0001 65.6L80.3001 56.4C82.3001 52.9 86.4001 53.8 84.5001 57.2L81.5001 62.4ZM69.5001 47.7C70.6001 45.8 71.9001 44.9 72.9001 44.9C74.3001 44.9 75.0001 45.8 75.0001 47.2C75.0001 50.7 70.6001 58 64.8001 57.1H64.0001L69.5001 47.7ZM162.3 61.8L162 62.1C159.3 65.3 156.6 67.8 155 67.8C154.2 67.8 153.7 67.2 154.6 65.7L160 56.1C161.6 53.2 160.1 51.2 158 51.2C156.4 51.2 154.7 52.1 152.8 54L154.2 51.5H150.4L144.3 62C144.1 61.9 144 61.8 143.8 61.7L143.5 62C141.8 63.9 139.7 64.8 137.8 64.8L141.4 58.7C143.7 54.7 141.6 51 138 51C135.1 51 132.8 52.2 130.7 55.9L128.8 59.1L127.2 61.9C127.1 61.8 127 61.8 126.9 61.7L126.6 62C123.5 65.6 120.8 67.9 117.8 69.2L128.2 51.5H124.4L117.7 63.1C114.8 65.8 112.5 67.3 111.8 67C110.9 66.6 111.8 65.2 112.3 64.4L119.7 51.5H115.9L109.9 61.9C109.8 61.8 109.7 61.8 109.6 61.7L109.3 62C106.6 65.2 103.9 67.7 102.3 67.7C101.5 67.7 101 67.1 101.9 65.6L107.3 56C108.9 53.1 107.4 51.1 105.3 51.1C103.7 51.1 102 52 100.1 53.9L101.5 51.4H97.7001L91.7001 61.8C91.6001 61.7 91.5001 61.7 91.3001 61.6L91.0001 61.9C88.3001 65.1 85.6001 67.6 84.0001 67.6C83.2001 67.6 82.7001 67 83.6001 65.5L89.7001 54.8H87.6001C87.7001 53.2 86.1001 51 83.6001 51C81.6001 51 78.7001 52.6 77.1001 55.4L73.2001 62.1C72.9001 61.9 72.6001 61.7 72.4001 61.6L72.1001 61.9C69.4001 65.1 67.3001 67.6 63.5001 67.6C60.9001 67.6 59.4001 65 61.6001 61.2L62.7001 59.3C63.4001 59.4 64.1001 59.5 64.8001 59.5C68.8001 59.5 73.4001 57.4 76.4001 52.2C77.5001 50.3 77.9001 48.6 77.9001 47.1C77.9001 43.7 75.7001 41.5 72.9001 41.5C70.8001 41.5 68.4001 43 66.7001 45.9L60.8001 56C58.6001 54.8 57.4001 52.7 57.4001 50.6C57.4001 48.9 58.2001 47.1 59.8001 45.8L58.6001 43.6C55.9001 45.5 54.7001 48.1 54.7001 50.6C54.7001 53.6 56.4001 56.5 59.5001 58.1L58.4001 60.1C55.7001 64.7 57.3001 69.8 62.6001 69.8C66.8001 69.8 68.7001 67.9 71.3001 65.4C70.5001 67.8 71.7001 69.8 74.3001 69.8C75.8001 69.8 77.7001 68.8 79.5001 67.3C79.7001 68.8 80.8001 69.8 82.8001 69.8C84.6001 69.8 86.6001 68.7 88.5001 67L87.1001 69.4H90.9001L96.7001 59.3C102.5 52.1 105.1 53 103.4 55.8L98.5001 64.3C96.9001 67.1 98.0001 69.7 101.1 69.7C103.1 69.7 105.4 68.3 107.5 66.3C107 68.4 108 69.7 109.9 69.7C111.7 69.7 113.8 68.2 115.5 66.7L113.4 70.3C108.3 71.8 105.1 73.9 105.1 76.8C105.1 80.4 110.7 81.2 113.4 76.5L116.3 71.5C119.5 70.5 122.6 68.5 125.8 65.3C125.3 70.6 132.3 71.8 136.5 66.4H137.3C138.7 66.4 140.5 65.9 142.2 64.9L139.7 69.3H143.5L149.3 59.2C155.1 52 157.7 52.9 156 55.7L151.1 64.2C149.5 67 150.6 69.6 153.7 69.6C156.8 69.6 160.4 66.3 163.5 62.6C163.4 62.6 162.8 62 162.3 61.8ZM280.9 26.2C278.6 29.9 276.3 31.7 274.7 31.7C273.9 31.7 273.4 31.1 274.3 29.6L279.6 20.4C281.6 16.9 285.7 17.8 283.8 21.2L280.9 26.2ZM244.7 26.4C242.4 30 240.2 31.7 238.6 31.7C237.8 31.7 237.3 31.1 238.2 29.6L243.5 20.4C245.5 16.9 249.6 17.8 247.7 21.2L244.7 26.4ZM204.8 40.2C204 41.6 202.7 41.4 202.7 40.4C202.7 39.4 203.6 38.3 206.5 37.2L204.8 40.2ZM212.8 11.7C213.9 9.80001 215.2 8.90002 216.2 8.90002C222.2 8.90002 217.7 23.3 208.1 21.1H207.3L212.8 11.7ZM290.5 25.8L290.2 26.1C287.5 29.3 284.8 31.8 283.2 31.8C282.4 31.8 281.9 31.2 282.8 29.7L295.6 7.60001H291.8L286.2 17.2C285.5 16.1 284.3 15.2 282.7 15.2C280.7 15.2 277.8 16.8 276.2 19.6L272.5 26C272.4 26 272.3 25.9 272.3 25.9L272 26.2C269.3 29.4 267 31.9 265.3 31.9C264.5 31.9 264 31.3 264.9 29.8L270.4 20.2C272 17.3 270.5 15.3 268.4 15.3C266.8 15.3 265.1 16.2 263.2 18.1L264.6 15.6H260.8L254.8 26C254.7 25.9 254.6 25.9 254.4 25.8L254.1 26.1C251.4 29.3 248.7 31.8 247.1 31.8C246.3 31.8 245.8 31.2 246.7 29.7L252.8 19H250.7C250.8 17.4 249.2 15.2 246.7 15.2C244.7 15.2 241.8 16.8 240.2 19.6L236.5 25.9L236.3 26.1C233.6 29.3 230.5 31.8 228.9 31.8C228.1 31.8 227.6 31.2 228.5 29.7L232.3 23.1C233.6 20.8 233 19.5 231.8 18L229.7 15.5C229.2 14.8 229.2 14 229.9 13.3L227.9 11.2C225.8 13.1 225.6 15.3 226.9 17L227.2 17.4C225.5 19.8 223.3 23 220.8 25.9C220.9 26 221 26.1 221.1 26.2C218 29.8 215.3 32.1 212.4 33.4L217.2 25.2H213.4L213 25.9C211 29.4 208.7 31.9 205.8 31.9C203.2 31.9 202.8 29.3 205 25.5L206.1 23.6C206.8 23.7 207.5 23.8 208.2 23.8C221.6 23.8 228.1 5.80002 216.3 5.80002C214.2 5.80002 211.8 7.30001 210.1 10.2L204.2 20.3C202 19.1 200.8 17 200.8 14.9C200.8 13.2 201.6 11.4 203.2 10.1L202 7.90002C199.3 9.80002 198.1 12.4 198.1 14.9C198.1 17.9 199.8 20.8 202.9 22.4L201.8 24.4C199.1 29 199.6 34.1 205 34.1C206.6 34.1 207.9 33.6 209.1 32.9L208.1 34.6C203 36.2 199.8 38.2 199.8 41.1C199.8 44.7 205.4 45.5 208.1 40.8L211 35.8C214.9 34.6 218.8 31.9 222.9 27.1C222.8 27 222.8 26.9 222.7 26.7C224.4 24.7 225.8 22.8 228.7 19L229.2 19.6C229.7 20.2 229.9 21 229.4 21.7L225.4 28.6C223.8 31.4 224.9 34 228 34C229.9 34 232.3 32.8 234.4 31C234.4 32.7 235.5 34 237.7 34C239.2 34 241.1 33 242.9 31.5C243.1 33 244.2 34 246.2 34C248 34 250 32.9 251.9 31.2L250.5 33.6H254.3L260.1 23.5C265.9 16.3 268.5 17.2 266.8 20L261.9 28.5C260.3 31.3 261.4 33.9 264.5 33.9C266.5 33.9 268.3 32.5 270.5 30.6C270.3 32.5 271.5 33.9 273.8 33.9C275.3 33.9 277.2 32.9 279 31.4C279.2 32.9 280.3 33.9 282.3 33.9C285.4 33.9 289 30.6 292.1 26.9C291.6 26.6 291 26 290.5 25.8ZM178.2 20.5C180.4 16.8 184.2 17.4 182 21.3L181.5 22.2C179.7 25.3 177.2 25.2 175.8 24.7L178.2 20.5ZM175.2 34.1C179.5 34.1 183.7 30.8 186.9 27.1C186.6 26.6 186 26 185.5 25.8L185.2 26.1C182.5 29.3 179 31.8 176.3 31.8C174 31.8 172.6 30.3 174.3 27.3L174.7 26.6C177.1 27.6 181.7 27.1 184.5 22.2L185 21.3C187 17.8 185.1 15.2 182 15.2C179 15.2 176.5 16.8 174.9 19.6L171.2 25.9C171.2 25.9 171.1 25.9 171.1 25.8L170.8 26.1C168.1 29.3 165.4 31.8 163.8 31.8C163 31.8 162.5 31.2 163.4 29.7L168.8 20.1C170.4 17.2 168.9 15.2 166.8 15.2C165.2 15.2 163.4 16.1 161.5 18.1L167.5 7.60001H163.7L153 26.1C152.9 26 152.7 25.9 152.6 25.8L152.3 26.1C149.6 29.3 146.9 31.8 145.3 31.8C144.5 31.8 144 31.2 144.9 29.7L153 15.6H156.1L157.2 13.8H154.1L157.7 7.60001H153.9L150.3 13.8H146.9L145.8 15.6H149.2L141.6 28.8C140 31.6 141.1 34.2 144.2 34.2C146.1 34.2 148.1 33 150.1 31.2L148.6 33.8H152.4L158.1 23.8C163.9 16.5 166.5 17.4 164.9 20.2L160 28.7C158.4 31.5 159.5 34.1 162.6 34.1C164.9 34.1 167.4 32.3 169.9 29.9C170.1 32.3 172.1 34.1 175.2 34.1ZM47.7001 20.5C49.9001 16.8 53.7001 17.4 51.5001 21.3L51.0001 22.2C49.2001 25.3 46.7001 25.2 45.3001 24.7L47.7001 20.5ZM70.8001 29.7L76.1001 20.5C78.1001 17 82.2001 17.9 80.3001 21.3L77.4001 26.5C75.1001 30.1 72.9001 31.8 71.3001 31.8C70.4001 31.7 69.9001 31.2 70.8001 29.7ZM124.8 20.5C127 16.8 130.8 17.4 128.6 21.3L128.1 22.2C126.3 25.3 123.9 25.2 122.4 24.7L124.8 20.5ZM67.0001 30C66.4001 32.2 67.6001 34.1 70.1001 34.1C71.6001 34.1 73.5001 33.1 75.3001 31.6C75.5001 33.1 76.6001 34.1 78.6001 34.1C80.6001 34.1 82.8001 32.7 85.0001 30.8C84.6001 32.8 85.5001 34.1 87.4001 34.1C89.5001 34.1 91.8001 32.2 93.6001 30.5C93.2001 32.5 94.4001 34.1 96.8001 34.1C99.9001 34.1 103.5 30.8 106.6 27.1C106.6 27.1 106.5 27 106.5 26.9C108.6 24.5 110.4 21.9 111.7 20.1C110.2 24 111 31.1 107.4 31.1C106.1 31.1 105.6 29.7 105.6 29.7L103.2 30.9C103.2 30.9 103.9 34 107.3 34C107.7 34 108 34 108.4 33.9H108.5C111.3 33.5 114 31.8 116.4 29.7C116.5 32.2 118.4 34 121.5 34C125.8 34 130 30.7 133.2 27C132.9 26.5 132.3 25.9 131.8 25.7L131.5 26C128.8 29.2 125.3 31.7 122.6 31.7C120.3 31.7 118.9 30.2 120.6 27.2L121 26.5C123.4 27.5 128 27 130.8 22.1L131.3 21.2C133.3 17.7 131.4 15.1 128.3 15.1C125.2 15.1 122.8 16.7 121.2 19.5L117.5 25.8H117.4L117.1 26.1C115.8 27.7 114.2 29 112.6 30.2C113.8 26.6 113.5 21.1 115.9 16.2L113.1 14.7C111.5 16.8 108.1 21.8 104.7 25.8L104.8 25.9L104.7 26.1C102 29.3 99.3001 31.8 97.7001 31.8C96.9001 31.8 96.4001 31.2 97.3001 29.7L105.4 15.6H101.6L94.9001 27.3C92.0001 29.9 89.8001 31.4 89.1001 31C88.2001 30.6 89.1001 29.2 89.6001 28.4L97.0001 15.5H93.2001L87.2001 25.9C87.1001 25.8 87.0001 25.8 86.9001 25.7L86.6001 26C83.9001 29.2 81.2001 31.7 79.6001 31.7C78.8001 31.7 78.3001 31.1 79.2001 29.6L85.3001 18.9H83.2001C83.3001 17.3 81.7001 15.1 79.2001 15.1C77.2001 15.1 74.3001 16.7 72.7001 19.5L68.9001 26.1C68.7001 26 68.5001 25.8 68.3001 25.7L68.0001 26C65.3001 29.2 62.1001 31.7 59.5001 31.7C57.2001 31.7 55.8001 30.2 57.5001 27.2L61.4001 20.4C63.6001 16.7 67.4001 17.3 65.2001 21.2L64.7001 22.1H67.8001L68.3001 21.2C70.3001 17.7 68.4001 15.1 65.3001 15.1C62.2001 15.1 60.2001 16.7 58.6001 19.5L54.8001 25.9C54.7001 25.8 54.6001 25.8 54.5001 25.7L54.2001 26C51.5001 29.2 48.3001 31.7 45.6001 31.7C43.3001 31.7 41.9001 30.2 43.6001 27.2L44.0001 26.5C46.4001 27.5 51.0001 27 53.8001 22.1L54.3001 21.2C56.3001 17.7 54.4001 15.1 51.3001 15.1C48.2001 15.1 45.8001 16.7 44.2001 19.5L40.2001 26.3C37.8001 30.3 39.9001 34 44.3001 34C47.6001 34 50.3001 32 53.1001 29.4C53.0001 32 55.0001 34 58.2001 34C61.6001 34.1 64.3001 32.3 67.0001 30ZM30.1001 16L33.2001 10.8C36.0001 6.00002 39.5001 8.80002 37.6001 12.4C36.1001 15.1 34.0001 16 30.1001 16ZM26.0001 33.3C23.7001 33.3 22.0001 32.8 20.6001 32C21.3001 31.2 21.9001 30.3 22.5001 29.3L28.9001 18.3L29.9001 18.4C38.7001 20.2 35.2001 33.3 26.0001 33.3ZM35.4001 17.8C43.0001 15.2 43.6001 5.70001 36.1001 5.70001C34.0001 5.70001 31.6001 7.20001 29.9001 10.1L19.7001 27.7C19.3001 28.5 18.8001 29.2 18.2001 29.8C15.6001 26.2 16.3001 20.8 20.0001 18.5L18.5001 16.6C10.6001 21.6 12.9001 36.2 26.1001 36.2C37.4001 36.2 42.6001 22.6 35.4001 17.8Z" fill="white"/>
</svg>
