<svg xmlns="http://www.w3.org/2000/svg" width="457" height="78" fill="none"><path fill="#fff" d="M298.4 1.7v74H318V39.2a93.41 93.41 0 0 0-1.2-14.7c.5.9.8 1.9 1.2 2.8.5 1 1 1.9 1.4 2.9.6 1.4 1.3 2.8 2 4.1.7 1.3 1.4 2.4 2.2 3.3l28.1 38.2h19.4v-74h-19.4v36.3c0 1.7 0 3.3.1 5 0 1.6.1 3.2.3 4.8 0 .8.1 1.6.2 2.4l.3 2.4c-.5-.9-.9-1.9-1.4-2.9l-1.4-3c-.6-1.2-1.3-2.4-2-3.6-.6-1.2-1.3-2.4-2-3.5l-27.9-38h-19.5ZM68.8 1.7v74h45.3V59.1H88.6V46.6h24V30.8h-24v-13h25.6V1.7H68.8ZM9.5 52.1s0-.1-.1-.2L0 66.7c3.5 3.2 7.5 5.8 12 7.7 4.5 1.8 9.1 2.8 13.7 3h1.4c1.2 0 2.3 0 3.4-.2 1.2-.1 2.4-.3 3.5-.5 1.4-.3 2.8-.6 4.2-1 1.4-.4 2.8-1 4.1-1.6 3.6-2 6.4-4.8 8.5-8.4 2.1-3.6 3.4-7.5 3.9-11.5v-1.3c.1-.5.1-.9.1-1.4v-.6c-.1-4-1.2-7.8-3.4-11.4-2.2-3.7-5.5-6.3-9.8-7.8-.9-.3-2.1-.6-3.5-.9-1.4-.4-2.8-.8-4.3-1.2-1.8-.5-3.5-1.1-5.1-1.6-1.6-.6-2.8-1.3-3.7-2a8 8 0 0 1-1.3-1.3c-.4-.5-.6-1-.8-1.5-.1-.2-.2-.5-.3-.7v-.7c0-1.6.8-3 2.3-4.3 1.6-1.4 3.2-2.2 5-2.4h.9c2.7 0 5.2.5 7.5 1.7s4.5 2.6 6.6 4.1l6.4-14.3c-2.4-1.4-4.9-2.7-7.7-3.8C41 1.8 38.2 1 35.4.5L32.1.2c-1-.1-2-.2-3-.2-4.2 0-8.4.9-12.3 2.7-3.8 1.8-7 4.7-9.5 8.8-.9 1.3-1.6 2.7-2.1 4.2-.6 1.5-1 3-1.2 4.6-.1.7-.2 1.3-.3 1.9v3.4c0 .9.1 1.8.3 2.7.2.8.5 1.6.7 2.4 1.3 3.8 3.6 6.8 6.9 8.9 3.3 2 6.9 3.5 10.7 4.4 0 0 .1 0 .2.1h.2l2.2.6c.8.2 1.6.4 2.4.7 2.1.8 4.1 2 5.8 3.4 1.9 1.4 2.8 3.1 2.8 5.2 0 .4 0 .8-.1 1.3 0 .5-.1 1-.3 1.5l-.2.5-.2.5c-.6 1.1-1.5 1.9-2.7 2.6-1.1.7-2.3 1.2-3.5 1.4-.3 0-.6.1-1 .2h-1.3c0-.1-.1-.1-.2-.1h-.3c0-.1-.1-.1-.2-.1-3.4-.1-6.5-1.2-9.1-3.1-2.6-2-5-4.2-7.1-6.5 0-.1-.1-.1-.2-.1Z"/><path fill="#fff" fill-rule="evenodd" d="M210.4 20.8c3.6-6.6 8.5-11.6 14.9-15.1A40.8 40.8 0 0 1 248 .6c1 .1 2 .2 2.9.2 2.9.4 5.7 1.1 8.5 2.1a36.1 36.1 0 0 1 20.9 18.2c3 5.9 4.5 12 4.5 18.5 0 .8 0 1.6-.1 2.4 0 .72-.08 1.36-.17 2.06l-.03.24c-.2 1.7-.5 3.3-.9 4.9-.4 1.6-.9 3.1-1.5 4.6-3.3 7.5-8.3 13.4-15.2 17.5-6.9 4.1-14.1 6.2-21.7 6.2-.5 0-1.1 0-1.6-.1h-1.5c-2.7-.2-5.3-.7-7.9-1.4-2.6-.7-5.1-1.7-7.4-2.9a37.5 37.5 0 0 1-15.3-14.5c-3.7-6.3-5.6-12.9-5.6-19.7 0-1 0-2 .1-3l.01-.14c.1-.96.2-2 .49-2.96.4-2 .9-4.1 1.6-6 .4-2.2 1.3-4.1 2.3-6ZM263.8 45l-.6 2.4c-1.4 4.1-3.8 7.4-7.1 10-3.2 2.4-6.9 3.6-11 3.6h-1.4l-1.4-.2c-.5 0-1-.1-1.5-.2l-1.4-.5c-4-1.2-7.2-3.6-9.5-7.2-2.2-3.7-3.5-7.6-3.7-11.7-.1-.3-.1-.6-.1-.8V38l.2-1.6c.09-.35.16-.69.22-1.01.09-.41.17-.8.28-1.19l.3-1.1.3-1.1v-.5l.2-.5c1.3-4.1 3.7-7.4 7-9.9s7-3.7 10.9-3.7c.8 0 1.5 0 2.3.2.8 0 1.5.1 2.3.3.63.16 1.2.37 1.79.6l.51.2c.8.3 1.5.6 2.3 1 2.8 1.7 5.1 4.1 6.7 7.2 1.6 3.1 2.6 6.3 3 9.6v1.4c.1.5.1.9.1 1.4 0 .5 0 1-.1 1.5 0 .5 0 1.1-.1 1.6-.08.76-.24 1.45-.4 2.19l-.1.41ZM181.1 68.8a32.6 32.6 0 0 1-11.8 5.1c-4.2.9-8.6 1.5-12.9 1.7-1.2.1-2.5.1-3.7.1h-23.8v-74H154a71.43 71.43 0 0 1 15.9 1.8c4.1.9 7.9 2.7 11.3 5.1 4.3 3 7.7 7 10.1 12 2.4 5 3.8 10.1 4.1 15.3.1.5.1.9.1 1.4v2.9c-.2 5.5-1.5 10.8-3.9 15.9s-6 9.4-10.5 12.7Zm-31.7-9.6c-.2-.1-.5-.1-.7-.1V18.5h7.5c2 .1 4 .3 6 .8s3.9 1.4 5.5 2.7c2.2 1.6 3.9 3.8 5.1 6.6 1.2 2.7 1.9 5.6 2.1 8.5.1.3.1.6.1.9v.9c0 3.3-.7 6.5-1.9 9.6-1.2 3-3 5.4-5.5 7.2-1.5 1-3.3 1.9-5.2 2.4-1.9.5-3.9.8-5.9 1-.62 0-1.32.08-2.1.17l-.3.03H151c-.2-.1-.5-.1-.8-.1h-.8ZM380.4 75.7l25.4-74H431l25.7 74h-20.2l-3.7-13.4h-28.6l-3.8 13.4h-20Zm28.2-27.6 7.5-24.5c.3-1.1.6-2.2 1.1-3.2.3-1.1.6-2.3.8-3.4.1-.1.1-.2.1-.3 0-.2 0-.3.1-.5 0-.5.1-.9.2-1.3.1-.5.2-.9.3-1.3 0 .33.07.66.15 1.05l.05.25c0 .4.1.8.3 1.3.17 1.1.4 2.12.66 3.19l.14.61 1.2 3.6 7.5 24.5h-20.1Z" clip-rule="evenodd"/></svg>