<svg width="25" height="15" viewBox="0 0 25 15" fill="none" xmlns="http://www.w3.org/2000/svg">
<path fill-rule="evenodd" clip-rule="evenodd" d="M24.1165 1.80445C24.2825 1.25845 24.1165 0.856445 23.3215 0.856445H20.6965C20.0285 0.856445 19.7205 1.20345 19.5535 1.58645C19.5535 1.58645 18.2185 4.78245 16.3275 6.85845C15.7155 7.46045 15.4375 7.65145 15.1035 7.65145C14.9365 7.65145 14.6855 7.46045 14.6855 6.91345V1.80445C14.6855 1.14845 14.5015 0.856445 13.9455 0.856445H9.8175C9.4005 0.856445 9.1495 1.16045 9.1495 1.44945C9.1495 2.07045 10.0955 2.21445 10.1925 3.96245V7.76045C10.1925 8.59345 10.0395 8.74444 9.7055 8.74444C8.8155 8.74444 6.6505 5.53345 5.3655 1.85945C5.1165 1.14445 4.8645 0.856445 4.1935 0.856445H1.5665C0.816504 0.856445 0.666504 1.20345 0.666504 1.58645C0.666504 2.26845 1.5565 5.65645 4.8115 10.1374C6.9815 13.1974 10.0365 14.8564 12.8195 14.8564C14.4885 14.8564 14.6945 14.4884 14.6945 13.8534V11.5404C14.6945 10.8034 14.8525 10.6564 15.3815 10.6564C15.7715 10.6564 16.4385 10.8484 17.9965 12.3234C19.7765 14.0724 20.0695 14.8564 21.0715 14.8564H23.6965C24.4465 14.8564 24.8225 14.4884 24.6065 13.7604C24.3685 13.0364 23.5185 11.9854 22.3915 10.7384C21.7795 10.0284 20.8615 9.26345 20.5825 8.88045C20.1935 8.38945 20.3045 8.17045 20.5825 7.73345C20.5825 7.73345 23.7825 3.30745 24.1155 1.80445H24.1165Z" fill="#83B3D3"/>
</svg>
