<svg width="25" height="15" fill="none" xmlns="http://www.w3.org/2000/svg"><path fill-rule="evenodd" clip-rule="evenodd" d="M24.116 1.804c.166-.546 0-.948-.794-.948h-2.625c-.668 0-.976.347-1.143.73 0 0-1.335 3.196-3.226 5.272-.612.602-.89.793-1.224.793-.167 0-.418-.19-.418-.738V1.804c0-.656-.184-.948-.74-.948H9.817c-.418 0-.668.304-.668.593 0 .621.945.765 1.043 2.513V7.76c0 .833-.153.984-.487.984-.89 0-3.055-3.21-4.34-6.885-.25-.715-.502-1.003-1.172-1.003H1.567c-.75 0-.9.347-.9.73 0 .682.89 4.07 4.144 8.551 2.17 3.06 5.226 4.72 8.008 4.72 1.67 0 1.875-.369 1.875-1.004V11.54c0-.737.158-.884.688-.884.39 0 1.057.192 2.615 1.667 1.78 1.75 2.073 2.533 3.075 2.533h2.625c.75 0 1.126-.368.91-1.096-.238-.724-1.088-1.775-2.215-3.022-.613-.71-1.53-1.475-1.81-1.858-.389-.49-.277-.71 0-1.147 0 0 3.2-4.426 3.534-5.929z" fill="#83B3D3"/></svg>